<svg xmlns:dc="http://purl.org/dc/elements/1.1/" xmlns:cc="http://creativecommons.org/ns#" xmlns:rdf="http://www.w3.org/1999/02/22-rdf-syntax-ns#" xmlns:svg="http://www.w3.org/2000/svg" xmlns="http://www.w3.org/2000/svg" id="svg431308" viewBox="0 0 1024 768" version="1.1"><metadata id="metadata431314"><rdf:rdf><cc:work rdf:about=""><dc:format>image/svg+xml</dc:format><dc:type rdf:resource="http://purl.org/dc/dcmitype/StillImage"/></cc:work></rdf:rdf></metadata><defs id="defs431312"/><g id="logo-group"><g id="title" style="font-style:normal;font-weight:400;font-size:72px;line-height:1;font-family:'Abril Fatface';font-variant-ligatures:none;text-align:center;text-anchor:middle" aria-label="कः"><path id="path431316" style="font-style: normal; font-weight: 400; font-size: 72px; line-height: 1; font-family: &quot;Abril Fatface&quot;; font-variant-ligatures: none; text-align: center; text-anchor: middle; fill: rgb(46, 76, 86);" d="m 504.76906,94.656 q -1.8,-1.944 -3.744,-2.736 -1.872,-0.792 -4.248,-0.792 -1.512,0 -2.952,0.504 -1.368,0.432 -2.448,1.44 -1.08,0.936 -1.8,2.376 -0.648,1.44 -0.648,3.384 0,3.96 2.088,6.12 2.16,2.16 5.544,2.16 1.656,0 3.096,-0.432 1.512,-0.504 2.664,-1.512 1.152,-1.08 1.8,-2.664 0.648,-1.584 0.648,-3.888 z m 5.4,25.344 h -5.472 v -11.808 q -1.224,1.8 -3.528,2.808 -2.232,1.008 -4.968,1.008 -2.52,0 -4.896,-0.864 -2.304,-0.864 -4.176,-2.592 -1.8,-1.728 -2.88,-4.248 -1.08,-2.52 -1.08,-5.904 0,-3.024 1.008,-5.256 1.08,-2.304 2.808,-3.816 1.728,-1.512 4.032,-2.232 2.304,-0.792 4.824,-0.792 5.544,0 8.856,3.744 v -10.8 h -25.128 V 74.64 h 56.304 v 4.608 h -25.704 v 11.736 q 1.224,-1.944 3.744,-3.168 2.592,-1.224 5.688,-1.224 2.448,0 4.68,0.792 2.232,0.72 3.888,2.232 1.728,1.512 2.736,3.744 1.008,2.232 1.008,5.112 0,3.312 -1.08,5.76 -1.08,2.376 -2.952,3.96 -1.8,1.512 -4.248,2.304 -2.448,0.72 -5.112,0.72 -0.792,0 -1.872,-0.144 -1.08,-0.144 -1.656,-0.36 l 1.08,-4.608 q 1.08,0.216 2.304,0.216 1.584,0 2.952,-0.432 1.44,-0.432 2.52,-1.368 1.08,-1.008 1.656,-2.448 0.648,-1.512 0.648,-3.672 0,-3.312 -2.016,-5.112 -1.944,-1.872 -5.256,-1.872 -4.32,0 -6.552,2.592 -2.16,2.52 -2.16,6.768 z" transform="translate(0 -175.28000000000003) translate(308.39410999999996 423.20000000000005) scale(6) translate(-479.56906 -74.64)"/><path id="path431318" style="font-style: normal; font-weight: 400; font-size: 72px; line-height: 1; font-family: &quot;Abril Fatface&quot;; font-variant-ligatures: none; text-align: center; text-anchor: middle; fill: rgb(46, 76, 86);" d="M 533.70969,79.248 V 74.64 h 10.728 v 4.608 z m 0.72,11.592 q 0,-1.224 1.008,-2.304 1.008,-1.152 2.592,-1.152 1.656,0 2.592,1.152 0.936,1.08 0.936,2.304 0,1.44 -1.008,2.52 -0.936,1.008 -2.52,1.008 -1.584,0 -2.592,-1.008 -1.008,-1.08 -1.008,-2.52 z m 0,16.92 q 0,-1.224 1.008,-2.304 1.008,-1.152 2.592,-1.152 1.656,0 2.592,1.152 0.936,1.08 0.936,2.304 0,1.44 -1.008,2.52 -0.936,1.008 -2.52,1.008 -1.584,0 -2.592,-1.008 -1.008,-1.08 -1.008,-2.52 z" transform="translate(0 -175.28000000000003) translate(651.2378900000001 423.20000000000005) scale(6) translate(-533.70969 -74.64)"/></g><g id="tagline" style="font-style:oblique;font-weight:normal;font-size:32px;line-height:1;font-family:'Droid Serif';font-variant-ligatures:none;text-align:center;text-anchor:middle"/></g></svg>